<svg width="48" height="48" viewBox="0 0 48 48" fill="none" xmlns="http://www.w3.org/2000/svg">
<circle cx="24" cy="24" r="24" fill="#FAE100"/>
<path d="M24 8C14.6101 8 7 14.1621 7 21.7679C7 26.7163 10.2257 31.0552 15.0642 33.4827C14.7092 34.8407 13.7776 38.4097 13.5897 39.1716C13.36 40.118 13.9263 40.1073 14.3021 39.8533C14.5944 39.6528 18.9605 36.6105 20.8448 35.2979C21.8678 35.4529 22.9222 35.5358 24 35.5358C33.3899 35.5358 41 29.3737 41 21.7679C41 14.1621 33.3899 8 24 8Z" fill="#371D1E"/>
<path d="M12.1411 19.4416H13.8897C13.8897 19.4416 13.9001 24.3173 13.8897 25.4529C13.8897 26.2814 15.7113 26.292 15.7087 25.4661L15.7165 19.5077C15.7165 19.5077 16.3037 19.513 17.4572 19.513C18.5455 19.513 18.5455 17.7792 17.4572 17.7766C16.2306 17.7766 12.1359 17.7422 12.1359 17.7422C11.1103 17.7422 11.1129 19.4442 12.1359 19.4442" fill="#FAE100"/>
<mask id="mask0_37_112" style="mask-type:luminance" maskUnits="userSpaceOnUse" x="11" y="17" width="8" height="10">
<path d="M12.1411 19.4416H13.8897C13.8897 19.4416 13.9001 24.3173 13.8897 25.4529C13.8897 26.2814 15.7113 26.292 15.7087 25.4661L15.7165 19.5077C15.7165 19.5077 16.3037 19.513 17.4572 19.513C18.5455 19.513 18.5455 17.7792 17.4572 17.7766C16.2306 17.7766 12.1359 17.7422 12.1359 17.7422C11.1103 17.7422 11.1129 19.4442 12.1359 19.4442" fill="white"/>
</mask>
<g mask="url(#mask0_37_112)">
<path d="M18.5456 17.7395H11.1104V26.2919H18.5456V17.7395Z" fill="#FAE100"/>
</g>
<path d="M20.5161 19.7565L21.4895 22.8509H19.4591L20.5161 19.7565ZM19.4252 18.306C18.9946 19.2668 17.4391 23.8091 16.9224 25.0134C16.5492 25.8843 18.1594 26.5937 18.5326 25.7228L18.8823 24.4814H22.0845C22.0845 24.4814 21.9749 24.5317 22.4003 25.6699C22.7448 26.591 24.4072 25.9531 24.0627 25.032C23.5721 23.7164 21.8705 18.9757 21.56 18.306C21.4164 17.9963 20.9049 17.7739 20.4091 17.7739C19.9967 17.7739 19.5974 17.9248 19.4278 18.306" fill="#FAE100"/>
<mask id="mask1_37_112" style="mask-type:luminance" maskUnits="userSpaceOnUse" x="16" y="17" width="9" height="10">
<path d="M20.5161 19.7565L21.4895 22.8509H19.4591L20.5161 19.7565ZM19.4252 18.306C18.9946 19.2668 17.4391 23.8091 16.9224 25.0134C16.5492 25.8843 18.1594 26.5937 18.5326 25.7228L18.8823 24.4814H22.0845C22.0845 24.4814 21.9749 24.5317 22.4003 25.6699C22.7448 26.591 24.4072 25.9531 24.0627 25.032C23.5721 23.7164 21.8705 18.9757 21.56 18.306C21.4164 17.9963 20.9049 17.7739 20.4091 17.7739C19.9967 17.7739 19.5974 17.9248 19.4278 18.306" fill="white"/>
</mask>
<g mask="url(#mask1_37_112)">
<path d="M24.4073 17.7739H16.5493V26.5963H24.4073V17.7739Z" fill="#FAE100"/>
</g>
<path d="M24.673 18.5917C24.6756 20.1349 24.6809 25.1113 24.6809 25.1113C24.6809 25.1113 24.5399 26.1012 25.3751 26.1012C26.2102 26.1012 28.0657 26.0933 28.8878 26.0933C29.7099 26.0933 29.7047 24.3198 28.8826 24.3198C28.0605 24.3198 26.5599 24.3119 26.5599 24.3119C26.5599 24.3119 26.5677 19.7114 26.5651 18.5917C26.5651 18.0517 26.0901 17.7817 25.6178 17.7817C25.1454 17.7817 24.6678 18.0544 24.6704 18.597" fill="#FAE100"/>
<mask id="mask2_37_112" style="mask-type:luminance" maskUnits="userSpaceOnUse" x="24" y="17" width="6" height="10">
<path d="M24.673 18.5917C24.6756 20.1349 24.6809 25.1113 24.6809 25.1113C24.6809 25.1113 24.5399 26.1012 25.3751 26.1012C26.2102 26.1012 28.0657 26.0933 28.8878 26.0933C29.7099 26.0933 29.7047 24.3198 28.8826 24.3198C28.0605 24.3198 26.5599 24.3119 26.5599 24.3119C26.5599 24.3119 26.5677 19.7114 26.5651 18.5917C26.5651 18.0517 26.0901 17.7817 25.6178 17.7817C25.1454 17.7817 24.6678 18.0544 24.6704 18.597" fill="white"/>
</mask>
<g mask="url(#mask2_37_112)">
<path d="M29.7124 17.7764H24.5425V26.0985H29.7124V17.7764Z" fill="#FAE100"/>
</g>
<path d="M29.932 18.3455C29.9503 19.0231 29.9111 25.143 29.9111 25.5956C29.9111 26.3103 31.7093 26.3103 31.7066 25.5956C31.7066 24.7645 31.7066 23.1869 31.7066 23.1869L32.2338 22.758L34.5409 25.9503C35.008 26.575 36.4747 25.4474 36.0102 24.8227L33.5596 21.551C33.5596 21.551 35.222 19.7272 35.8771 19.0655C36.2607 18.6817 35.0759 17.4694 34.6922 17.8558C34.3216 18.229 31.7171 20.8734 31.7171 20.8734C31.7171 20.8734 31.7406 19.2137 31.7171 18.2952C31.7093 17.9458 31.2865 17.7791 30.8559 17.7791C30.3939 17.7791 29.9216 17.9723 29.932 18.3455Z" fill="#FAE100"/>
<mask id="mask3_37_112" style="mask-type:luminance" maskUnits="userSpaceOnUse" x="29" y="17" width="8" height="10">
<path d="M29.932 18.3455C29.9503 19.0231 29.9111 25.143 29.9111 25.5956C29.9111 26.3103 31.7093 26.3103 31.7066 25.5956C31.7066 24.7645 31.7066 23.1869 31.7066 23.1869L32.2338 22.758L34.5409 25.9503C35.008 26.575 36.4747 25.4474 36.0102 24.8227L33.5596 21.551C33.5596 21.551 35.222 19.7272 35.8771 19.0655C36.2607 18.6817 35.0759 17.4694 34.6922 17.8558C34.3216 18.229 31.7171 20.8734 31.7171 20.8734C31.7171 20.8734 31.7406 19.2137 31.7171 18.2952C31.7093 17.9458 31.2865 17.7791 30.8559 17.7791C30.3939 17.7791 29.9216 17.9723 29.932 18.3455Z" fill="white"/>
</mask>
<g mask="url(#mask3_37_112)">
<path d="M36.4773 17.4717H29.9111V26.5747H36.4773V17.4717Z" fill="#FAE100"/>
</g>
</svg>
