<svg width="24" height="62" viewBox="0 0 24 62" fill="none" xmlns="http://www.w3.org/2000/svg">
<path d="M16.0499 36.4972H14.6373C13.6295 36.4972 12.7208 35.6645 12.7208 34.6278C12.7208 33.4806 13.6295 32.6563 14.6373 32.6563H16.0499V29.9541H14.6373C13.6295 29.9541 12.7208 29.0194 12.7208 27.9826C12.7208 26.8355 13.6295 26.0112 14.6373 26.0112H16.0499V23.309H14.6373C13.6295 23.309 12.7208 22.3742 12.7208 21.3375C12.7208 20.3008 13.6295 19.3661 14.6373 19.3661H16.0499V16.6638H14.6373C13.6295 16.6638 12.7208 15.7291 12.7208 14.6924C12.7208 13.6557 13.6295 12.7209 14.6373 12.7209H16.0499V8.04724C16.0499 5.76138 14.2325 3.89191 12.0104 3.89191C9.78831 3.89191 7.97099 5.76138 7.97099 8.04724V41.3069C7.97099 41.9272 7.56621 42.5561 7.06231 42.862C6.05452 43.6947 5.24498 44.7314 4.63369 45.8786C3.92328 47.3317 3.62589 48.9972 3.82414 50.6628C4.0224 52.8467 5.1376 54.8181 6.75668 56.2712C9.98658 58.9734 14.8355 58.7695 17.7681 55.6509C20.2958 53.0506 20.8988 49.0992 19.2798 45.8786C18.6767 44.6295 17.8672 43.5928 16.752 42.862C16.2481 42.4456 16.0416 41.8252 16.0416 41.3069V36.5227L16.0499 36.4972ZM12.0104 48.3429C11.5065 48.3429 11.1017 48.5469 10.7961 48.9633C10.4905 49.4816 10.5979 50.2124 10.9944 50.6288C11.4983 51.1471 12.4069 51.1471 12.9108 50.6288C13.2165 50.3144 13.3156 49.796 13.2165 49.3796C13.1174 48.7593 12.6135 48.3429 12.0022 48.3429H12.0104ZM12.0104 44.3915C13.9269 44.3915 15.7525 45.6407 16.6611 47.4082C17.4707 49.3796 17.165 51.7759 15.6533 53.331C13.6295 55.4129 10.3996 55.4129 8.37575 53.331C6.75667 51.7759 6.45929 49.2777 7.36795 47.3062C8.27662 45.5387 9.99483 44.4 12.0187 44.4L12.0104 44.3915ZM1.30467 44.0771C2.01508 42.624 3.02288 41.2729 4.12981 40.2277V8.00475C4.12981 3.63698 7.66533 0 12.0104 0C16.3555 0 19.7919 3.63698 19.7919 8.00475V40.2277C21.0062 41.2644 21.9149 42.6155 22.7244 44.0771C25.0457 48.7508 24.137 54.5717 20.5023 58.4211C15.959 62.9928 8.87964 63.2052 4.13805 58.9394C1.91594 56.968 0.396005 54.1553 0.098623 51.0367C-0.20702 48.6488 0.197751 46.2525 1.31293 44.0771H1.30467Z" fill="white"/>
</svg>
