<svg width="62" height="58" viewBox="0 0 62 58" fill="none" xmlns="http://www.w3.org/2000/svg">
<path d="M42.8055 18.5869C42.9074 19.7395 42.1855 20.6787 41.1408 20.7811C39.9942 20.986 39.06 20.1579 38.9581 19.1077C38.6438 17.1269 37.7096 15.3511 36.2573 14.096C34.9068 12.9434 33.0384 12.1152 31.0594 12.1152C29.9129 12.1152 29.089 11.2785 29.089 10.2369C29.089 9.08428 29.9214 8.25611 31.0594 8.25611C33.9641 8.25611 36.7753 9.40871 38.8477 11.176C40.9285 13.0544 42.3808 15.667 42.797 18.5869H42.8055ZM30.7537 27.5687L23.7978 39.7864H31.4841C32.5203 39.7864 33.3526 40.6231 33.3526 41.7672V48.7597L40.4189 36.542H32.7326C31.586 36.542 30.7622 35.7053 30.7622 34.5612V27.5687H30.7537ZM18.7019 40.7255L18.9058 40.3072H14.3364C6.43781 40.3072 0 33.8355 0 25.9978C0 22.0277 1.55425 18.4759 4.15316 15.8719C6.43781 13.5752 9.45287 12.0042 12.8756 11.6969C14.3279 8.35856 16.723 5.53253 19.7296 3.55175C22.9485 1.35752 26.7959 0 31.051 0C36.0364 0 40.7077 1.87833 44.2408 5.01172C47.3578 7.82921 49.6425 11.5944 50.5767 15.8719C57.0145 16.1878 62 21.6178 62 28.0895C62 34.5612 56.4964 40.3072 49.8463 40.3072H42.6781L33.1233 57.0158C32.6052 57.9549 31.3567 58.2708 30.4225 57.75C29.8025 57.3317 29.3863 56.5974 29.4882 55.9741V43.654H20.3496C18.8973 43.654 17.963 42.0916 18.6849 40.7341L18.7019 40.7255ZM21.1989 36.3371L30.966 19.4236C31.2803 18.8003 31.9003 18.271 32.7326 18.271C33.7688 18.271 34.703 19.2102 34.703 20.2518V32.5719H43.7397C44.054 32.5719 44.4701 32.6743 44.7759 32.8878C45.7101 33.4086 46.0244 34.6637 45.3959 35.6028L44.9797 36.3371H49.8633C54.4326 36.3371 58.0677 32.6829 58.0677 28.0895C58.0677 23.4962 54.4326 19.7395 49.8633 19.7395H49.1329C48.0967 19.842 47.1625 19.1162 47.0521 18.0661C46.534 14.096 44.5551 10.5442 41.6504 7.9402C38.8477 5.43007 35.1022 3.9701 31.051 3.9701C27.6197 3.9701 24.5027 5.01172 21.9123 6.78759C19.4153 8.46101 17.343 10.9626 16.1964 13.7801C15.9926 14.096 15.8822 14.4034 15.7803 14.7193C15.3641 15.1376 14.846 15.556 14.1156 15.556C11.3129 15.556 8.71397 16.7086 6.9474 18.5869C5.0789 20.4652 3.93233 23.0778 3.93233 25.9978C3.93233 31.7437 8.50165 36.3371 14.3195 36.3371H21.1734H21.1989Z" fill="white"/>
</svg>
