<svg width="52" height="74" viewBox="0 0 52 74" fill="none" xmlns="http://www.w3.org/2000/svg">
<path d="M9.65416 16.1902C11.2319 14.6624 13.2239 11.735 19.7716 10.7591C26.3194 9.78332 35.362 10.4831 38.5669 12.6418C41.7718 14.8004 47.3334 17.856 49.1972 23.9868C51.0609 30.1177 51.051 35.8642 49.1972 39.7576C47.3433 43.651 47.7081 46.9136 46.7812 49.1806C45.8543 51.4477 42.4226 52.6502 41.4956 56.0803C40.5687 59.5105 41.2195 61.4621 40.6575 62.7632C40.0954 64.0643 38.8923 64.8922 38.8923 66.9424C38.8923 68.9926 39.4445 69.5446 40.2827 70.8358C41.1209 72.1271 40.6575 73.0634 38.8923 73.0634C37.1272 73.0634 36.3876 71.9496 34.7112 72.0383C33.0348 72.1271 32.808 73.3394 31.2105 73.0634C29.613 72.7875 31.7726 71.6342 31.2105 68.4209C30.5794 64.8429 30.678 61.2748 30.4414 57.9334C30.1554 53.7541 28.4001 50.324 24.505 50.1367C20.6098 49.9494 17.1683 53.8428 16.9908 57.3715C16.8133 60.9003 16.8035 67.5733 16.8035 68.2238C16.8035 68.8743 16.5274 69.1503 17.4543 69.8896C18.3812 70.6288 17.829 72.4228 16.5274 72.5016C15.2257 72.5805 14.8411 72.0679 13.076 72.0679C11.3108 72.0679 10.1176 73.1423 8.63847 71.7426C7.15931 70.343 9.4668 66.4594 9.19069 64.3205C8.72722 60.7031 6.91278 57.825 6.63667 54.7694C6.36056 51.7138 3.43181 47.8105 2.50487 44.5677C1.57792 41.3248 2.04139 38.1707 1.76528 35.3812C1.48917 32.5918 0.562227 29.9994 2.3175 26.2933C4.07278 22.5872 6.31125 19.433 9.65416 16.1803V16.1902Z" stroke="white" stroke-linecap="round" stroke-linejoin="round"/>
<path d="M22.2764 21.1974C22.2764 21.1974 22.3454 23.908 22.6215 26.7664C22.8976 29.6249 23.7555 31.2217 23.9429 34.3758C24.1302 37.53 24.6825 44.4395 24.6825 44.4395C24.6825 44.4395 25.6784 41.3741 25.925 35.6769C26.1715 29.9797 27.0097 28.4421 27.7 25.1007C28.3902 21.7592 28.6762 18.7037 26.5857 17.5898" stroke="white" stroke-linecap="round" stroke-linejoin="round"/>
<path d="M33.6953 50.2846C33.6953 50.2846 35.3027 52.4826 39.2668 52.7882" stroke="white" stroke-linecap="round" stroke-linejoin="round"/>
<path d="M14.9003 50.2846C14.9003 50.2846 12.5336 52.0982 9.61475 51.5364" stroke="white" stroke-linecap="round" stroke-linejoin="round"/>
<path d="M24.9487 1.15869L25.7475 9.9706" stroke="white" stroke-miterlimit="10" stroke-linecap="round"/>
</svg>
