<svg width="71" height="38" viewBox="0 0 71 38" fill="none" xmlns="http://www.w3.org/2000/svg">
<path fill-rule="evenodd" clip-rule="evenodd" d="M69.7683 20.169C68.3429 19.4043 66.6683 18.1252 66.2532 16.4707C65.9487 15.2055 66.2947 14.3574 66.0456 13.134C67.9139 12.2024 69.4777 9.32448 71 7.35022C67.9969 7.65609 66.7098 9.54693 64.9938 8.93519C64.9523 8.78225 64.8277 8.5876 64.7447 8.50419C65.1599 7.6978 65.6027 5.95989 65.3674 4.80593C65.0907 5.32035 63.6652 6.43261 62.7657 6.62725C61.9076 5.73744 61.2987 5.23693 60.2331 4.52786C58.863 3.62415 57.3545 2.85948 55.68 2.21993C48.8573 -0.630233 40.8859 0.885218 33.4127 0.704476C28.8043 0.607154 24.0298 -0.0880076 19.6289 0.00931502C13.8164 0.16225 7.1736 2.28944 4.558 7.85073C4.51648 7.73951 4.40576 7.50315 4.35041 7.43364C4.46112 7.09996 4.4888 6.75238 4.47496 6.4048C4.44728 6.02941 4.36425 5.66793 4.21202 5.33425C3.94907 4.75031 3.50622 4.29151 2.93881 4.11077C2.28837 3.94393 2.59283 4.2498 2.8281 4.45835C3.3955 4.90325 3.90755 5.90428 3.76916 6.51602C3.36782 6.01551 2.80042 5.62622 2.14997 5.51499C2.02542 5.50109 1.90087 5.48719 1.77632 5.48719C0.364717 5.5289 -0.507152 7.11386 0.3232 8.46248C0.710697 9.10202 1.43034 9.38009 2.16381 9.31057C2.77274 9.25496 3.38166 8.94909 3.783 8.40686C3.8522 8.54589 3.96291 8.82396 4.03211 9.0047C2.50979 12.8698 3.06336 15.4558 4.61335 19.1123C4.95933 19.9187 5.34683 21.9069 5.47138 22.7967C5.65129 23.7143 4.15666 25.2298 3.79684 26.5645C3.49238 27.7184 3.60309 28.8168 4.00443 30.0264C4.65487 32.0006 4.23969 32.4177 4.32273 34.2808C4.35041 34.8786 4.59951 35.8657 5.15308 36.1855C5.29147 36.2689 5.47138 36.2967 5.60977 36.1855C5.78968 36.6999 6.06647 37.1726 6.52316 37.4785C7.11825 37.8956 8.03163 38.0346 8.87583 37.9929C9.23564 37.979 9.58162 37.9234 9.88609 37.8539C10.7303 37.6314 10.841 37.1865 10.4397 36.4775C10.3566 36.3245 10.2736 36.1994 10.1767 36.0882C9.83073 35.6572 9.34636 35.3374 8.82047 35.1289C8.10083 32.96 7.90708 31.7226 8.10083 29.4146C8.64056 28.5248 9.31868 27.788 10.2044 26.9955C10.8133 28.1912 11.2838 29.4424 11.6298 30.7493C11.8374 31.5557 11.8513 32.3482 11.962 33.099C12.045 33.5995 12.2249 33.9193 12.4879 34.1556C12.8338 34.4615 13.2352 34.4754 13.5535 34.8369C13.7472 35.0454 13.8579 35.3235 13.9548 35.6294C14.1347 36.3384 14.9097 36.6721 15.9061 36.7972C16.4597 36.8668 18.1896 37.0197 18.328 36.3384C18.411 35.9491 18.1066 35.5321 17.8713 35.2679C17.553 34.8925 17.1793 34.5727 16.7642 34.3086C14.9651 31.6392 14.287 27.9409 15.2972 24.8266C18.411 24.8961 22.0231 26.0222 24.6248 26.5645C27.1851 27.1623 27.8494 26.4811 28.9565 26.0083C30.2712 25.4522 31.9043 25.7025 33.302 25.7164C35.627 25.7581 38.3395 25.6886 40.3047 25.1602C40.8997 25.2715 41.481 25.3271 42.0346 25.341C42.9203 27.9548 43.5845 29.5537 43.197 32.3343C43.0171 33.5995 43.197 34.3503 43.7645 34.531C44.1796 35.6711 44.9823 36.1021 45.9649 36.2133C47.4872 36.3802 47.8609 36.1299 47.6394 35.4625C47.4318 34.8369 46.7814 33.8359 46.3524 33.2936C46.2693 31.8338 46.7676 30.9996 46.989 29.651C47.0997 29.8734 47.2243 30.0959 47.335 30.3183C47.6118 30.805 47.8055 31.2082 47.9577 31.5835C48.1515 32.1258 48.276 32.668 48.3175 33.2519C48.3591 33.8498 48.2899 34.4615 48.3175 35.0732C48.3175 35.3791 48.4006 35.7545 48.6497 35.9492C48.7742 36.0465 48.9542 36.0882 49.1064 36.0187C49.1479 36.1577 49.1894 36.2967 49.2725 36.4497C49.397 36.686 49.5631 36.8668 49.743 37.0058C50.3796 37.4924 51.9019 37.6592 52.6077 37.3117C52.7599 37.2422 52.9814 37.0614 53.0506 36.8251C53.1198 36.5887 53.0782 36.3941 53.0367 36.255C52.8706 35.7406 52.3171 35.115 51.9296 34.7813C51.8742 34.7257 51.805 34.684 51.7497 34.6283L51.6666 34.1417C51.2099 31.2638 51.2653 28.0938 52.0956 25.2715C55.9291 25.8554 58.6693 25.5217 61.6309 24.5763C62.6688 24.7571 67.0697 25.3132 68.2322 24.2565C68.9656 24.3261 69.4085 24.048 69.6022 23.8812C70.2527 23.2833 70.6817 22.3101 70.8754 21.4759C70.9723 21.031 71.0969 20.3636 70.7232 20.0161C70.4188 19.7519 70.0313 19.9465 69.8098 20.2107L69.7683 20.169ZM2.32988 8.40686C2.32988 8.40686 2.21917 8.42077 2.16381 8.43467C1.72096 8.46248 1.36114 8.25393 1.13971 7.94806C0.724537 7.33631 0.987481 6.54383 1.79015 6.52993C1.91471 6.52993 2.03926 6.54383 2.14997 6.58554C2.6897 6.73848 3.20175 7.22509 3.36782 7.66999C3.13256 8.00367 2.71738 8.33735 2.31604 8.42077L2.32988 8.40686Z" fill="white"/>
</svg>
