<svg width="57" height="34" viewBox="0 0 57 34" fill="none" xmlns="http://www.w3.org/2000/svg">
<path fill-rule="evenodd" clip-rule="evenodd" d="M43.2633 19.3205C41.3218 19.9607 39.3208 20.4209 37.3396 20.741C37.1613 22.8218 37.2208 24.9427 37.6962 27.1235C40.8859 30.3848 39.9151 30.7249 38.8849 30.965C37.4981 31.2851 36.1113 30.945 35.9528 29.6045C35.6952 29.7045 35.4179 29.7045 35.2198 29.5644C34.6848 29.2043 34.8433 27.9238 34.7245 27.2235C34.5065 26.0431 34.2094 24.5825 33.7537 23.0619C33.3575 25.2028 33.2386 27.3636 33.5358 29.6045C36.4481 32.8657 35.4377 33.2059 34.3877 33.446C32.9612 33.7661 31.614 33.4259 31.5744 32.0854C31.297 32.1855 31.0395 32.1855 30.8414 32.0454C30.3461 31.6853 30.6036 30.4048 30.5442 29.7045C30.3263 27.4436 29.5932 24.1223 29.1376 21.3613C28.3451 21.3613 27.5724 21.3212 26.8394 21.2812C21.8468 21.9015 15.3684 21.9615 10.2768 20.741C9.58336 21.3813 9.06826 21.9215 8.94939 22.8618C8.79089 24.2024 9.26638 26.0831 9.88054 28.1039C11.1485 29.3844 12.7334 31.7253 10.3956 31.7453C8.92958 31.7453 7.82012 31.1251 7.60219 30.3247C6.80972 30.3848 6.57198 29.9246 6.53236 29.2443C6.49273 28.6441 6.53236 27.7437 6.35405 26.9834C6.13612 25.5229 5.68045 24.2224 5.20497 22.8618C3.44172 24.8226 3.97664 26.7033 4.33325 29.1843C5.30403 30.4448 5.99744 31.5852 6.21537 32.3855C6.55217 33.566 5.06629 33.666 4.15495 33.526C2.74831 33.3059 1.99547 32.4856 1.91622 31.6052C1.44074 31.5452 1.08413 31.3852 0.925632 30.965C0.767138 30.5448 1.00488 28.7841 0.985067 28.1839C0.985067 26.2232 0.747326 25.4028 0.430338 23.5421C0.311468 22.8819 0.0539149 22.0815 0.0142914 21.4613C-0.0253321 21.0611 0.0142914 20.681 0.172785 20.3609C0.588832 19.4205 1.06431 19.2204 1.48036 17.6998C2.11434 15.3789 -0.0451439 13.6783 0.549209 10.257C0.767138 9.01647 1.22281 7.89604 2.2134 6.61554C0.489773 5.79522 0.133162 3.51434 1.65867 2.43392C2.31245 1.97374 3.30304 1.89371 4.29363 2.47393C4.49175 2.59398 4.65024 2.69402 4.72949 2.9141C4.84836 3.21422 4.63043 3.39429 4.37288 3.37428C4.21438 3.37428 4.0757 3.25424 3.93702 3.19421C3.63984 3.05416 3.4021 2.99413 3.18417 3.01414C2.27283 3.05416 1.85678 4.13458 2.47095 4.81484C2.68888 5.05494 2.98605 5.23501 3.38229 5.33504C6.29462 2.83407 10.8315 2.01375 14.8335 1.79367C22.7186 1.33349 30.1083 3.4143 38.0727 4.11457C39.717 3.87448 41.2623 3.79445 42.6888 3.91449C43.6596 2.87409 44.7096 1.45354 46.3143 0.493164C45.8785 1.33349 45.72 2.53396 45.6011 3.73442C46.7502 2.9141 48.0776 1.67362 50.1974 0.933335C49.187 2.1338 48.8899 4.17459 48.355 5.89526C50.1776 7.21577 51.6437 9.19654 52.6739 11.9976C53.2683 12.938 54.2985 13.9584 55.2296 14.7187C56.0221 14.6587 56.3589 15.0388 55.923 16.0592C55.6259 16.7795 55.1306 17.5998 54.5164 18.1C54.1004 18.4401 53.6645 18.6002 53.189 18.5802C50.4748 19.8207 46.8889 18.6602 43.2435 19.3405L43.2633 19.3205Z" fill="white"/>
<path fill-rule="evenodd" clip-rule="evenodd" d="M20.2813 22.2416L21.7672 24.8426L23.2531 27.4436H20.2813H17.3096L18.7955 24.8426L20.2813 22.2416Z" fill="white"/>
<path d="M21.9652 25.5428H18.5972V33.706H21.9652V25.5428Z" fill="white"/>
</svg>
