<svg width="50" height="50" viewBox="0 0 50 50" fill="none" xmlns="http://www.w3.org/2000/svg">
<path d="M26.0404 16.8646H22.9154V29.3646L32.8113 35.3021L34.3738 32.7396L26.0404 27.8021V16.8646ZM36.1175 3.96875L45.7154 11.9792L43.0488 15.1771L33.4446 7.17083L36.1175 3.96875ZM13.88 3.96875L16.5508 7.16875L6.95085 15.1771L4.28418 11.9771L13.88 3.96875ZM24.9988 8.53125C14.6446 8.53125 6.24876 16.9271 6.24876 27.2812C6.24876 37.6354 14.6446 46.0312 24.9988 46.0312C35.3529 46.0312 43.7488 37.6354 43.7488 27.2812C43.7488 16.9271 35.3529 8.53125 24.9988 8.53125ZM24.9988 41.8646C16.9571 41.8646 10.4154 35.3229 10.4154 27.2812C10.4154 19.2396 16.9571 12.6979 24.9988 12.6979C33.0404 12.6979 39.5821 19.2396 39.5821 27.2812C39.5821 35.3229 33.0404 41.8646 24.9988 41.8646Z" fill="white"/>
</svg>
