<svg width="62" height="51" viewBox="0 0 62 51" fill="none" xmlns="http://www.w3.org/2000/svg">
<path d="M18.0701 35.5918C16.9238 35.5918 16.1001 34.6477 16.1001 33.6006C16.1001 32.5535 16.9323 31.6094 18.0701 31.6094H39.2567C41.3371 31.6094 43.4091 32.4505 45.0734 33.7122C46.6274 34.9738 47.8757 36.759 48.3937 38.9647C48.9116 41.0675 48.7078 43.1617 47.8757 45.0498C46.2113 49.0408 42.1608 51.4525 37.9065 50.929C35.8261 50.6114 33.9579 49.7703 32.404 48.1997C31.2576 47.1526 30.5358 45.788 30.0178 44.4233C29.6017 42.9557 29.3979 41.3765 29.6017 39.9088C29.8055 38.8618 30.7481 38.0207 31.886 38.2266C32.9219 38.3296 33.6522 39.3853 33.5503 40.4324C33.3465 41.3765 33.4484 42.3206 33.7541 43.1617C33.9579 44.0028 34.4844 44.7323 35.1043 45.3674C36.0384 46.3115 37.1847 46.835 38.4245 47.0496C40.921 47.3672 43.3072 45.8909 44.3432 43.5822C44.7592 42.4236 44.8611 41.1705 44.547 39.9088C44.2328 38.6472 43.6129 37.6001 42.5769 36.862C41.7447 36.1239 40.6068 35.6003 39.3586 35.6003H18.0701V35.5918ZM1.97005 27.5069C0.934076 27.5069 0 26.5628 0 25.5157C0 24.3571 0.934076 23.5245 1.97005 23.5245H52.6564C53.9047 23.5245 55.0426 23.001 55.9766 22.2629C56.9107 21.5248 57.641 20.4777 57.9467 19.216C58.2609 17.9544 58.1505 16.6927 57.6325 15.5427C56.6984 13.2339 54.2019 11.7663 51.7139 12.0753C50.5675 12.2813 49.3277 12.8134 48.4955 13.7575C47.7653 14.384 47.3492 15.1221 47.0435 15.9632C46.7378 16.8043 46.7293 17.7484 46.8397 18.6925C47.0435 19.7396 46.2198 20.6837 45.1753 20.8982C44.1394 21.1042 43.0949 20.3747 42.993 19.216C42.7892 17.7484 42.8911 16.1692 43.4091 14.7016C43.8252 13.3369 44.6573 11.9723 45.6933 10.9252C47.2473 9.35457 49.2258 8.51347 51.1959 8.19591C55.4502 7.67237 59.611 10.0841 61.2669 14.075C62.0991 15.9632 62.201 18.066 61.683 20.1601C61.165 22.3659 59.9167 24.1511 58.3628 25.4127C56.8088 26.6744 54.6265 27.5155 52.546 27.5155H1.97005V27.5069ZM9.96915 19.319C8.93317 19.319 8.10099 18.4779 8.10099 17.4309C8.10099 16.2722 8.93317 15.4397 9.96915 15.4397H31.886C33.1342 15.3367 34.2721 14.9161 35.2062 14.178C36.1403 13.4399 36.8705 12.3928 37.1762 11.1312C37.4904 9.86953 37.38 8.60788 36.8621 7.45781C36.446 6.29915 35.6138 5.35505 34.4759 4.72852C33.4399 4.10199 32.1917 3.88742 30.9434 3.99041C29.797 4.1964 28.5573 4.72852 27.7251 5.56104C26.9948 6.29915 26.5787 7.02867 26.273 7.86977C25.9588 8.71087 25.9588 9.65497 26.0692 10.4961C26.273 11.6547 25.4493 12.5988 24.4049 12.8048C23.3689 12.9078 22.3244 12.1783 22.2225 11.1226C22.0187 9.65497 22.1206 8.07576 22.6386 6.60812C23.0547 5.24348 23.8869 3.87884 24.9229 2.83175C26.4768 1.26113 28.4554 0.308452 30.4254 0.102468C32.5059 -0.21509 34.5778 0.20546 36.446 1.36412C38.3141 2.4112 39.6643 4.0934 40.4965 5.98159C41.3286 7.86977 41.4305 9.97252 40.9125 12.0667C40.3946 14.1609 39.1463 15.9546 37.5923 17.3193C36.0384 18.5809 33.856 19.3105 31.7756 19.3105H9.96915V19.319Z" fill="white"/>
</svg>
