<svg width="50" height="50" viewBox="0 0 50 50" fill="none" xmlns="http://www.w3.org/2000/svg">
<g id="scanner">
<g id="Vector">
<path d="M39.5832 25H37.4998V8.33337H12.4998V25H10.4165C6.95817 25 4.1665 27.7917 4.1665 31.25V41.6667H45.8332V31.25C45.8332 27.7917 43.0415 25 39.5832 25ZM16.6665 12.5H33.3332V25H16.6665V12.5ZM41.6665 37.5H8.33317V31.25C8.33317 30.1042 9.27067 29.1667 10.4165 29.1667H39.5832C40.729 29.1667 41.6665 30.1042 41.6665 31.25V37.5Z" fill="white"/>
<path d="M37.4998 35.4167C38.6504 35.4167 39.5832 34.484 39.5832 33.3334C39.5832 32.1828 38.6504 31.25 37.4998 31.25C36.3492 31.25 35.4165 32.1828 35.4165 33.3334C35.4165 34.484 36.3492 35.4167 37.4998 35.4167Z" fill="white"/>
</g>
</g>
</svg>
