<svg width="50" height="50" viewBox="0 0 50 50" fill="none" xmlns="http://www.w3.org/2000/svg">
<path d="M25.0002 12.5002V18.7502L33.3335 10.4168L25.0002 2.0835V8.3335C15.7918 8.3335 8.3335 15.7918 8.3335 25.0002C8.3335 28.271 9.29183 31.3127 10.9168 33.8752L13.9585 30.8335C13.021 29.1043 12.5002 27.1043 12.5002 25.0002C12.5002 18.1043 18.1043 12.5002 25.0002 12.5002ZM39.0835 16.1252L36.0418 19.1668C36.9585 20.9168 37.5002 22.896 37.5002 25.0002C37.5002 31.896 31.896 37.5002 25.0002 37.5002V31.2502L16.6668 39.5835L25.0002 47.9168V41.6668C34.2085 41.6668 41.6668 34.2085 41.6668 25.0002C41.6668 21.7293 40.7085 18.6877 39.0835 16.1252Z" fill="white"/>
</svg>
