<svg width="35" height="73" viewBox="0 0 35 73" fill="none" xmlns="http://www.w3.org/2000/svg">
<path d="M18.2528 40.5156C18.4402 40.3973 18.6374 40.3283 18.8642 40.3086C20.4617 40.1706 22.0691 44.6258 22.3452 46.7746C22.6213 48.9234 21.931 53.9404 21.862 55.3992C21.7929 56.858 22.4142 58.1788 23.1834 60.0614C23.9525 61.9441 24.2977 64.7237 24.0906 66.5275C23.8835 68.3312 22.5621 69.5239 22.9763 70.7757C23.3904 72.0275 23.5088 72.2246 25.0372 72.1951C26.5657 72.1655 26.3093 71.1995 27.7786 71.1305C29.2479 71.0615 28.5478 72.2049 30.8454 71.7614C32.4429 71.4558 29.8692 64.4575 29.6818 60.4656C29.4945 56.4736 28.6563 52.7675 29.8692 48.9628C31.0821 45.1581 32.0978 43.6796 32.4725 40.3382C32.8472 36.9967 33.0247 35.6069 33.8629 32.5415C34.7011 29.476 33.9517 25.6812 33.0247 22.9903C32.0978 20.2994 32.3739 15.9428 30.3327 13.9024C28.2914 11.8621 25.1359 11.8621 22.9073 10.6596C20.6786 9.45706 19.1009 8.61923 16.4088 9.35849C16.4088 9.35849 14.3675 11.3988 10.8373 11.7734C7.30699 12.1479 6.19269 12.6999 5.64047 16.2286C5.08824 19.7573 4.3388 21.0486 2.85963 22.9115C1.38047 24.7744 0.631026 28.8354 1.00575 30.6884C1.38047 32.5415 4.53602 35.055 4.71352 37.5093C4.89102 39.9636 4.59519 42.6052 6.27158 45.6016C7.94796 48.5981 9.54546 49.357 9.54546 53.1125C9.54546 56.8679 9.4074 64.1027 8.99324 66.4683C8.57907 68.8339 6.88296 70.204 7.65213 71.3868C8.4213 72.5696 9.29893 72.3626 10.9457 71.4164C12.1488 70.7166 12.8982 71.5741 13.5885 71.8994C14.2788 72.2246 14.9789 72.2443 15.403 70.9925C15.827 69.7407 16.1524 67.0696 16.0143 66.3697C15.8763 65.6699 15.1268 62.4961 15.403 60.8993C15.6791 59.3025 16.9314 58.8786 16.9314 56.651C16.9314 54.4234 16.4186 53.9601 16.1425 51.5452C15.8664 49.1303 15.6791 47.3266 16.1623 45.3059C16.3891 44.3794 16.6356 43.2853 17.0005 42.3489" stroke="white" stroke-linecap="round" stroke-linejoin="round"/>
<path d="M18.4502 1V9.07265" stroke="white" stroke-linecap="round" stroke-linejoin="round"/>
<path d="M15.2451 20.6247C15.2451 20.6247 14.5943 27.347 14.9197 30.5012C15.2451 33.6553 16.8229 43.5317 18.2133 46.1832C18.2133 46.1832 18.3021 38.9484 18.2133 36.2575C18.1246 33.5666 17.6118 30.2745 18.5388 27.4456C19.4657 24.6167 23.2721 21.5118 22.1085 17.6579" stroke="white" stroke-linecap="round" stroke-linejoin="round"/>
</svg>
