<svg width="48" height="48" viewBox="0 0 48 48" fill="none" xmlns="http://www.w3.org/2000/svg">
<circle cx="24" cy="24" r="24" fill="white"/>
<mask id="mask0_37_113" style="mask-type:luminance" maskUnits="userSpaceOnUse" x="6" y="6" width="37" height="37">
<path d="M41.7386 21.1364H24.5V28.2841H34.4227C33.4977 32.825 29.6295 35.4318 24.5 35.4318C18.4455 35.4318 13.5682 30.5545 13.5682 24.5C13.5682 18.4455 18.4455 13.5682 24.5 13.5682C27.1068 13.5682 29.4614 14.4932 31.3114 16.0068L36.6932 10.625C33.4136 7.76591 29.2091 6 24.5 6C14.2409 6 6 14.2409 6 24.5C6 34.7591 14.2409 43 24.5 43C33.75 43 42.1591 36.2727 42.1591 24.5C42.1591 23.4068 41.9909 22.2295 41.7386 21.1364Z" fill="white"/>
</mask>
<g mask="url(#mask0_37_113)">
<path d="M4.31836 35.4318V13.5681L18.6138 24.4999L4.31836 35.4318Z" fill="#FBBC05"/>
</g>
<mask id="mask1_37_113" style="mask-type:luminance" maskUnits="userSpaceOnUse" x="6" y="6" width="37" height="37">
<path d="M41.7386 21.1364H24.5V28.2841H34.4227C33.4977 32.825 29.6295 35.4318 24.5 35.4318C18.4455 35.4318 13.5682 30.5545 13.5682 24.5C13.5682 18.4455 18.4455 13.5682 24.5 13.5682C27.1068 13.5682 29.4614 14.4932 31.3114 16.0068L36.6932 10.625C33.4136 7.76591 29.2091 6 24.5 6C14.2409 6 6 14.2409 6 24.5C6 34.7591 14.2409 43 24.5 43C33.75 43 42.1591 36.2727 42.1591 24.5C42.1591 23.4068 41.9909 22.2295 41.7386 21.1364Z" fill="white"/>
</mask>
<g mask="url(#mask1_37_113)">
<path d="M4.31836 13.5681L18.6138 24.4999L24.5002 19.3704L44.682 16.0908V4.31812H4.31836V13.5681Z" fill="#EA4335"/>
</g>
<mask id="mask2_37_113" style="mask-type:luminance" maskUnits="userSpaceOnUse" x="6" y="6" width="37" height="37">
<path d="M41.7386 21.1364H24.5V28.2841H34.4227C33.4977 32.825 29.6295 35.4318 24.5 35.4318C18.4455 35.4318 13.5682 30.5545 13.5682 24.5C13.5682 18.4455 18.4455 13.5682 24.5 13.5682C27.1068 13.5682 29.4614 14.4932 31.3114 16.0068L36.6932 10.625C33.4136 7.76591 29.2091 6 24.5 6C14.2409 6 6 14.2409 6 24.5C6 34.7591 14.2409 43 24.5 43C33.75 43 42.1591 36.2727 42.1591 24.5C42.1591 23.4068 41.9909 22.2295 41.7386 21.1364Z" fill="white"/>
</mask>
<g mask="url(#mask2_37_113)">
<path d="M4.31836 35.4318L29.5456 16.0908L36.1888 16.9318L44.682 4.31812V44.6818H4.31836V35.4318Z" fill="#34A853"/>
</g>
<mask id="mask3_37_113" style="mask-type:luminance" maskUnits="userSpaceOnUse" x="6" y="6" width="37" height="37">
<path d="M41.7386 21.1364H24.5V28.2841H34.4227C33.4977 32.825 29.6295 35.4318 24.5 35.4318C18.4455 35.4318 13.5682 30.5545 13.5682 24.5C13.5682 18.4455 18.4455 13.5682 24.5 13.5682C27.1068 13.5682 29.4614 14.4932 31.3114 16.0068L36.6932 10.625C33.4136 7.76591 29.2091 6 24.5 6C14.2409 6 6 14.2409 6 24.5C6 34.7591 14.2409 43 24.5 43C33.75 43 42.1591 36.2727 42.1591 24.5C42.1591 23.4068 41.9909 22.2295 41.7386 21.1364Z" fill="white"/>
</mask>
<g mask="url(#mask3_37_113)">
<path d="M44.6818 44.6818L18.6136 24.4999L15.25 21.9772L44.6818 13.5681V44.6818Z" fill="#4285F4"/>
</g>
</svg>
