<svg width="62" height="40" viewBox="0 0 62 40" fill="none" xmlns="http://www.w3.org/2000/svg">
<path d="M42.797 18.4452C42.8989 19.4789 42.177 20.5211 41.0304 20.6228C39.9943 20.7244 39.06 20.0042 38.9496 18.9621C38.6353 16.9964 37.7011 15.2341 36.2488 13.9886C34.8984 12.7431 33.0299 12.0229 30.949 12.0229C29.9129 12.0229 29.0806 11.1925 29.0806 10.1589C29.0806 9.01504 29.9129 8.19318 30.949 8.19318C33.9641 8.19318 36.6649 9.22686 38.8477 11.0909C40.9285 12.9549 42.3808 15.5476 42.797 18.4452ZM14.3364 36.0602H49.7614C54.4326 36.0602 58.0677 32.4338 58.0677 27.8755C58.0677 23.3171 54.3307 19.5891 49.7614 19.5891H49.1414C47.9948 19.6907 47.0606 18.8604 46.9586 17.8267C46.7548 14.3021 44.2578 10.2605 41.6589 7.87969C38.8562 5.38869 35.1107 3.93984 30.9575 3.93984C27.6367 3.93984 24.5197 4.97353 21.9208 6.73587C19.22 8.4982 17.1392 11.0909 16.0011 14.2004C15.6869 14.929 14.8545 15.4459 14.0307 15.3442C11.3299 15.4459 8.73096 16.5897 6.96438 18.4537C5.09589 20.3177 3.94931 22.9104 3.94931 25.7064C3.94931 31.5103 8.51862 36.0686 14.3364 36.0686V36.0602ZM49.7614 40H14.3364C6.4378 40 0 33.5776 0 25.6979C0 21.8598 1.55425 18.3436 4.15315 15.7509C6.43781 13.4717 9.45287 11.9127 12.8756 11.6077C14.3279 8.29486 16.723 5.49037 19.7296 3.52468C22.9485 1.34718 26.7959 0 30.949 0C36.0364 0 40.7162 1.86401 44.1389 4.97353C47.3578 7.76954 49.6425 11.506 50.5767 15.7509C56.9126 16.0644 62 21.4531 62 27.8755C62 34.2978 56.4964 40 49.7444 40H49.7614Z" fill="white"/>
</svg>
