<svg width="58" height="75" viewBox="0 0 58 75" fill="none" xmlns="http://www.w3.org/2000/svg">
<path d="M31.5373 55.0247C31.3993 56.1385 34.1505 57.0847 34.0125 59.8643C33.8744 62.6439 35.1268 63.2057 35.8269 65.0095C36.5271 66.8133 35.965 66.9612 35.8269 68.6269C35.6889 70.2927 35.1268 73.7721 37.2173 73.4962C39.3079 73.2202 39.446 72.5203 40.8364 72.3528C42.2268 72.1852 43.203 73.4962 44.8696 73.4962C46.5361 73.4962 47.3743 72.1064 46.398 71.4065C45.4218 70.7067 43.7553 68.6269 44.1694 67.0893C44.5836 65.5516 44.4455 65.2757 44.0314 63.7479C43.6172 62.2201 43.8933 61.2443 45.2837 58.7407C46.6741 56.237 53.3599 50.944 55.3026 46.0748C57.2452 41.2056 57.0086 34.9465 57.0086 30.9743C57.0086 27.002 53.7741 22.1427 52.9359 20.743C52.0977 19.3434 44.5836 9.19094 30.5216 9.7922C16.4597 10.3935 13.8169 13.9222 13.8169 13.9222C10.474 16.5638 8.5314 18.3774 5.18848 23.6606C1.84557 28.9438 1.1553 32.9456 1.00739 37.4896C0.85947 42.0335 2.95988 50.6581 4.90252 52.6098C6.84515 54.5614 8.24543 55.7639 9.7739 56.0596C11.3024 56.3553 12.6632 55.3499 13.3239 54.798" stroke="white" stroke-linecap="round" stroke-linejoin="round"/>
<path d="M18.2739 52.6295C18.2739 52.6295 20.7786 51.1017 22.1691 51.3777C23.5595 51.6537 23.2834 55.4091 26.6263 55.8329C29.9692 56.2568 30.3833 56.3849 32.1978 54.3052C34.0122 52.2254 34.2883 51.4566 36.7931 51.3481C39.2978 51.2397 43.3408 54.108 45.2835 53.7137" stroke="white" stroke-linecap="round" stroke-linejoin="round"/>
<path d="M24.4964 54.7684C24.4964 54.7684 21.8339 57.9817 21.4099 59.1645C20.9859 60.3473 20.6408 61.3921 21.4099 63.1959C22.1791 64.9997 20.4337 66.9513 20.6408 68.4101C20.8478 69.8689 21.1239 72.7175 21.0549 72.9245C20.9859 73.1315 18.6192 73.2103 18.6192 73.2103C18.6192 73.2103 17.5049 72.1655 16.0455 72.2345C14.586 72.3035 14.586 73.2005 14.0239 73.506C12.9096 74.1171 10.681 74.2453 10.2669 72.9245C9.85271 71.6037 12.0024 69.8689 12.4265 68.1932C12.8505 66.5176 13.5408 64.2998 12.9096 63.186C12.2785 62.0722 9.63577 60.6134 8.80744 58.6618C7.9791 56.7102 8.1566 55.3894 8.1566 55.3894" stroke="white" stroke-linecap="round" stroke-linejoin="round"/>
<path d="M27.0504 18.5351C27.0504 18.5351 26.4192 23.1283 26.7052 25.08C26.9912 27.0316 27.1884 31.408 27.3363 34.4734C27.4842 37.5389 27.1292 41.2943 28.1055 44.0739C28.1055 44.0739 29.2198 34.5424 29.772 29.9492C30.3242 25.356 30.3242 24.3111 31.7935 21.3936C33.2628 18.476 31.7935 16.2484 31.7935 16.2484" stroke="white" stroke-linecap="round" stroke-linejoin="round"/>
<path d="M29.5259 1L30.5317 9.81191" stroke="white" stroke-miterlimit="10" stroke-linecap="round"/>
</svg>
