<svg width="62" height="62" viewBox="0 0 62 62" fill="none" xmlns="http://www.w3.org/2000/svg">
<path d="M40.554 19.0331C31.1934 16.5339 21.6288 22.1529 19.1292 31.4017C18.2961 34.5214 18.2961 37.6412 19.1292 40.4464C19.7499 42.8351 20.7956 45.0198 22.3515 46.89L46.8879 22.2464C46.2673 21.7278 45.5361 21.2093 44.7029 20.7928C43.4531 20.0617 41.9993 19.4412 40.5455 19.0246L40.554 19.0331ZM58.646 10.5069C59.4792 9.77583 60.729 9.77583 61.4516 10.5069C62.1828 11.238 62.1828 12.4791 61.4516 13.3121L13.3054 61.4517C12.5743 62.1828 11.333 62.1828 10.4998 61.4517C9.76867 60.7206 9.76867 59.4795 10.4998 58.6465L19.5458 49.7037C17.5734 47.315 16.1111 44.5013 15.2864 41.492C14.3512 37.9557 14.3512 34.2154 15.2864 30.4751C18.4066 19.0416 30.1562 12.2835 41.4892 15.2928C43.3596 15.8113 45.128 16.5424 46.6924 17.4775C47.7296 18.098 48.7753 18.7271 49.7105 19.5602L58.6545 10.5154L58.646 10.5069ZM37.9524 8.42422C37.9524 9.57181 37.1192 10.3964 35.98 10.3964C34.9427 10.3964 34.0075 9.56331 34.0075 8.42422V1.87016C34.0075 0.833068 34.9427 0 35.98 0C37.1277 0 37.9524 0.833068 37.9524 1.87016V8.42422ZM8.52739 34.0029C9.56462 34.0029 10.3978 34.938 10.3978 35.975C10.3978 37.0121 9.56462 37.9472 8.52739 37.9472H1.97244C0.824683 37.9472 0 37.0121 0 35.975C0 34.938 0.833184 34.0029 1.97244 34.0029H8.52739ZM17.888 15.1823C18.7212 15.9134 18.7212 17.1544 17.888 17.8855C17.1568 18.6166 15.9155 18.6166 15.1844 17.8855L10.5083 13.3121C9.77717 12.4791 9.77717 11.2295 10.5083 10.5069C11.3415 9.77583 12.5913 9.77583 13.314 10.5069L17.888 15.1823Z" fill="white"/>
</svg>
