<svg width="46" height="73" viewBox="0 0 46 73" fill="none" xmlns="http://www.w3.org/2000/svg">
<path d="M9.35267 14.0163C9.35267 14.0163 13.2478 9.83707 23.4639 9.83707C33.68 9.83707 38.8669 15.1301 39.8925 16.7072C40.918 18.2843 43.8862 23.4788 44.261 28.2987C44.6357 33.1186 45.3753 41.9404 43.334 45.1833C41.2928 48.4261 40.1785 50.565 39.0642 54.4584C37.9499 58.3518 38.1175 60.7174 37.3483 63.0141C36.5792 65.3107 36.7961 68.8591 37.5554 69.6969C38.3147 70.5347 38.8768 72.3385 37.2103 72.2695C35.5438 72.2005 35.0507 72.4075 34.2914 71.9935C33.5321 71.5795 33.1771 71.4416 32.5558 71.4416C31.9346 71.4416 31.8557 72.2104 30.1201 72.2794C28.3846 72.3484 27.8915 72.3484 27.6154 71.3726C27.3393 70.3967 29.282 69.4899 29.4299 67.8241C29.5778 66.1583 29.8933 63.4675 29.5186 61.7031C29.1439 59.9388 28.217 59.1009 28.8678 57.0606C29.5186 55.0203 30.6329 52.1421 29.0551 50.6636C27.4774 49.1851 25.4559 47.7164 21.4424 47.4207C16.3541 47.0363 14.1057 49.5498 13.9282 51.3141C13.7507 53.0785 15.2299 55.0203 15.8807 56.4199C16.5316 57.8196 16.0681 58.7362 15.6046 59.1995C15.1411 59.6628 13.8395 61.1511 13.8395 63.2802C13.8395 65.4092 14.4706 67.4102 14.2536 69.1449C14.0367 70.8797 13.2774 72.1217 12.7942 72.2991C12.311 72.4765 10.9107 72.2991 10.9107 72.2991C10.9107 72.2991 10.4966 71.2937 9.38225 71.2937C8.26795 71.2937 8.26795 72.3484 6.80851 72.3779C5.34906 72.4075 4.02768 71.9245 4.0967 70.6727C4.16573 69.4209 6.11823 68.6521 6.18726 67.4003C6.25629 66.1485 5.98018 61.8313 6.11823 60.1655C6.25629 58.4997 6.8874 55.9172 6.46337 54.3204C6.03934 52.7236 1.79907 48.4064 1.31587 45.065C0.83268 41.7235 0.901707 29.9645 2.01601 26.0711C3.13032 22.1777 4.9349 17.1212 9.39212 14.0065L9.35267 14.0163Z" stroke="white" stroke-linecap="round" stroke-linejoin="round"/>
<path d="M19.3815 21.3398C19.3815 21.3398 19.2435 23.5675 20.0817 27.4609C20.9199 31.3543 20.4958 36.6473 20.9199 39.9887C21.3439 43.3302 22.8526 44.306 22.8526 44.306C22.8526 44.306 21.8665 41.9404 22.8526 35.2575C23.8387 28.5747 24.6769 25.6571 24.953 21.3398C25.2292 17.0226 22.8526 16.6973 22.8526 16.6973" stroke="white" stroke-linecap="round" stroke-linejoin="round"/>
<path d="M35.8096 47.3616C35.8096 47.3616 34.5572 49.1752 31.7764 49.0274" stroke="white" stroke-linecap="round" stroke-linejoin="round"/>
<path d="M8.80029 47.3616C8.80029 47.3616 10.4668 49.0471 12.2813 49.0372" stroke="white" stroke-linecap="round" stroke-linejoin="round"/>
<path d="M23.2471 1.02515L23.6415 9.83705" stroke="white" stroke-miterlimit="10" stroke-linecap="round"/>
</svg>
