<svg width="43" height="62" viewBox="0 0 43 62" fill="none" xmlns="http://www.w3.org/2000/svg">
<path d="M21.5556 54.2122C20.4008 54.2122 19.5711 53.38 19.5711 52.242C19.5711 51.2059 20.4094 50.3736 21.5556 50.3736C26.8932 50.3736 31.2813 46.0084 31.2813 40.607C31.2813 39.4605 32.2222 38.6367 33.2658 38.6367C34.4205 38.6367 35.2502 39.469 35.2502 40.607C35.2502 48.191 29.0744 54.2122 21.5471 54.2122H21.5556ZM21.5556 62C9.63158 62 0 52.4458 0 40.5985C0 27.7152 12.1378 11.3074 18.7243 2.37316L19.9817 0.819001C20.7173 -0.327505 22.3853 -0.217101 23.121 0.819001L24.2757 2.37316C30.9734 11.3074 43 27.7152 43 40.5985C43 52.4373 33.377 62 21.5556 62ZM21.5556 58.0509C31.2813 58.0509 39.1337 50.2632 39.1337 40.5985C39.1337 29.1759 27.9367 13.9062 21.5556 5.17572C15.0718 13.8977 3.87488 29.1674 3.87488 40.5985C3.87488 50.2547 11.8299 58.0509 21.5556 58.0509Z" fill="white"/>
</svg>
