<svg width="62" height="61" viewBox="0 0 62 61" fill="none" xmlns="http://www.w3.org/2000/svg">
<path d="M58.6743 14.771C59.4048 14.0523 60.6451 14.0523 61.3756 14.771C62.2081 15.4897 62.2081 16.7099 61.3756 17.529C46.8324 31.8368 32.2806 46.1531 17.7374 60.4609C17.0068 61.1797 15.7666 61.1797 14.9341 60.4609C14.2035 59.7422 14.2035 58.522 14.9341 57.703L20.3368 52.488C12.9633 50.7497 6.62607 46.1531 2.77789 39.7095C2.15776 38.6899 1.63108 37.5617 1.22332 36.5421C0.807073 35.4138 0.390831 34.2939 0.0765206 33.1657C-0.339729 31.7365 1.01096 30.4077 2.46358 30.8172C5.36883 31.6363 8.59689 31.8368 11.6041 31.4273C14.6198 31.0178 17.525 30.0985 20.3283 28.4605C25.0005 25.9031 28.4324 21.9166 30.3013 17.32C32.2721 12.7234 32.6884 7.40814 31.3377 2.39369C30.9214 1.06487 32.2721 -0.263958 33.7248 0.0452658C37.1567 0.96458 40.3763 2.60264 43.2815 4.75049C47.7498 8.12688 51.0713 12.8237 52.7363 18.0388C52.9402 18.7575 53.1526 19.3676 53.2545 19.9777L58.6573 14.7627L58.6743 14.771ZM23.6583 49.2202L49.9415 23.3624C49.8396 21.9333 49.5253 20.6045 49.109 19.2757C47.6564 14.6791 44.7426 10.6926 40.903 7.82601C39.3484 6.59747 37.5814 5.57786 35.8145 4.85913C36.4346 9.56435 35.7126 14.4701 33.9456 18.7575C31.6605 24.0728 27.7104 28.778 22.3076 31.8452C19.0881 33.6838 15.6561 34.8121 12.1223 35.2216C9.7352 35.5308 7.23771 35.5308 4.85064 35.2216C5.26689 36.0406 5.68314 36.9599 6.20133 37.779C9.83714 44.1139 16.2763 48.3093 23.6583 49.2286V49.2202Z" fill="white"/>
</svg>
