<svg width="47" height="36" viewBox="0 0 47 36" fill="none" xmlns="http://www.w3.org/2000/svg">
<path d="M23.4953 30.0859C20.4399 30.0859 17.9551 28.2244 17.9551 25.9366C17.9551 23.6488 20.4399 21.7874 23.4953 21.7874C26.5506 21.7874 29.0355 23.6488 29.0355 25.9366C29.0355 28.2244 26.5506 30.0859 23.4953 30.0859ZM23.4953 23.2577C21.2898 23.2577 19.4254 24.4839 19.4254 25.9366C19.4254 27.3893 21.2898 28.6155 23.4953 28.6155C25.7008 28.6155 27.5651 27.3893 27.5651 25.9366C27.5651 24.4839 25.7008 23.2577 23.4953 23.2577Z" fill="white"/>
<path d="M21.7194 27.5274C21.3636 27.5274 20.7637 27.3215 20.7637 25.9336C20.7637 24.5456 21.3636 24.3397 21.7194 24.3397C22.0752 24.3397 22.6751 24.5456 22.6751 25.9336C22.6751 27.3215 22.0752 27.5274 21.7194 27.5274Z" fill="white"/>
<path d="M25.2394 27.5274C24.8836 27.5274 24.2837 27.3215 24.2837 25.9336C24.2837 24.5456 24.8836 24.3397 25.2394 24.3397C25.5952 24.3397 26.1951 24.5456 26.1951 25.9336C26.1951 27.3215 25.5952 27.5274 25.2394 27.5274Z" fill="white"/>
<path d="M46.9941 27.3481C45.4003 23.2841 43.827 19.2113 42.195 15.162L42.1891 15.1444C42.0038 14.6915 41.6598 14.3592 41.251 14.1886C40.9628 12.7066 40.0806 11.4127 38.8044 10.601C38.3574 8.43085 36.6195 6.71645 34.4493 6.29005C33.8994 5.16967 32.9849 4.26689 31.8527 3.73463C31.0999 1.54972 29.0091 0 26.633 0C25.5832 0 24.5569 0.302887 23.6777 0.861611C22.6338 0.749866 21.6045 0.94689 20.6841 1.39681C19.9313 1.02629 19.0991 0.829264 18.2551 0.829264C15.7056 0.829264 13.556 2.56719 12.9237 4.91971C10.9388 5.45197 9.38907 7.06933 8.95679 9.09249C6.99244 9.94528 5.66032 11.8891 5.64268 14.1034C5.26922 14.2798 4.96045 14.5856 4.77224 15.0532C4.7693 15.062 4.76342 15.0738 4.76048 15.0826C3.22252 18.9937 1.68162 22.9047 0.181888 26.8305C-0.000432232 27.3039 -0.0357201 27.8862 0.0319149 28.3949C0.202473 29.6535 1.04056 30.4857 2.05508 31.1562C3.69891 32.2442 5.54564 32.8412 7.43353 33.3205C11.6651 34.3968 15.9879 34.8232 20.3371 34.9732C25.4274 35.1496 30.5 34.9526 35.5373 34.141C38.3486 33.6881 41.1334 33.0941 43.7182 31.8355C45.2385 31.0944 46.5589 30.1387 47 28.3655V27.3539C47 27.3539 47 27.3481 47 27.3451L46.9941 27.3481ZM10.7447 11.9067C11.521 11.7655 12.0827 11.0833 12.0709 10.2952C12.0709 10.2688 12.0709 10.2393 12.0709 10.2129C12.0915 8.96899 13.109 7.96328 14.3558 7.96328C15.2498 7.96328 15.9732 7.23988 15.9732 6.34593C15.9732 5.08733 16.9995 4.06104 18.2581 4.06104C18.7786 4.06104 19.2697 4.23454 19.6784 4.56095C20.2695 5.03145 21.1046 5.03145 21.6957 4.56095C22.1044 4.23454 22.5955 4.06104 23.116 4.06104C23.2984 4.06104 23.4836 4.08456 23.6806 4.1375C24.1952 4.26983 24.7393 4.1375 25.1392 3.79344C25.4333 3.5376 25.9332 3.23472 26.633 3.23472C27.7564 3.23472 28.7268 4.0728 28.8885 5.18731C28.9826 5.82837 29.4502 6.35475 30.0766 6.51942C30.8911 6.73409 31.5175 7.37515 31.7116 8.18971C31.8909 8.93664 32.5673 9.45125 33.3348 9.43067C33.3642 9.43067 33.3936 9.43067 33.4289 9.42479C34.6493 9.44243 35.6579 10.4423 35.6785 11.6685C35.6903 12.3154 36.0872 12.8948 36.6871 13.1388C37.4841 13.4623 38.0163 14.1916 38.0986 15.0326L37.2988 15.4061C32.829 17.3351 28.1945 17.8997 23.466 17.8997C18.9256 17.8997 14.4735 17.3704 10.1889 15.6384C9.84487 15.5002 9.3332 15.2414 9.09794 15.0473L9.04207 15.0091C8.93327 14.7415 8.87151 14.4504 8.87151 14.1534C8.87151 13.0506 9.65961 12.1067 10.7418 11.9096L10.7447 11.9067ZM43.1007 28.095C42.142 28.5596 41.2128 29.1183 40.21 29.4447C37.2811 30.4005 34.2552 30.8533 31.1969 31.1386C26.7477 31.5532 22.2691 31.6002 17.8111 31.3121C14.5029 31.0974 11.2123 30.7092 8.00402 29.8182C6.74836 29.4683 5.52505 28.9595 4.33409 28.4185C3.4666 28.0244 3.496 27.9244 3.83712 27.0658C4.93104 24.2957 6.02496 21.5226 7.11888 18.7525C7.18652 18.5849 7.2571 18.4173 7.34237 18.2144C7.40119 18.2438 7.46 18.2673 7.52175 18.2967C7.67173 18.4291 7.82758 18.5526 7.99226 18.6702C8.27456 18.8702 8.60097 18.9643 8.9215 18.9643C8.95385 18.9643 8.98326 18.9613 9.0156 18.9584C13.6324 20.8492 18.5021 21.4256 23.4601 21.4256C29.0238 21.4256 34.4728 20.7139 39.6219 18.2085C40.0748 19.3612 40.51 20.4699 40.9481 21.5756C41.7215 23.537 42.4861 25.5013 43.2742 27.4569C43.3948 27.7539 43.3889 27.9597 43.1036 28.0979L43.1007 28.095Z" fill="white"/>
</svg>
