<svg width="42" height="73" viewBox="0 0 42 73" fill="none" xmlns="http://www.w3.org/2000/svg">
<path d="M13.9678 11.3127C13.9678 11.3127 9.6979 12.7025 8.44554 14.3782C7.19318 16.0538 3.67277 23.5548 2.45986 26.6202C1.24694 29.6856 0.231251 32.8792 1.48361 39.1481C2.73597 45.4071 3.29805 46.7969 6.35499 49.8623C9.41193 52.9278 9.97401 55.5694 9.97401 58.349C9.97401 61.1286 9.42179 61.8284 9.3429 63.4942C9.26401 65.16 9.97402 66.9046 9.68804 68.2254C9.40207 69.5462 7.80457 69.6152 7.95249 71.143C8.10041 72.6708 9.54999 72.1878 10.8714 72.1188C12.1928 72.0498 12.2618 70.867 14.1453 71.419C16.0287 71.971 16.4429 72.0498 16.5809 70.5812C16.719 69.1125 15.6737 67.3087 16.5809 64.7361C17.4882 62.1635 16.0485 58.9601 16.5908 56.5945C17.1332 54.2289 17.9023 48.5218 21.1762 48.5218C24.4501 48.5218 25.2094 53.736 25.0714 55.5497C24.9333 57.3633 24.0261 59.9063 24.0754 62.4099C24.1247 64.9135 24.815 66.2639 24.2627 69.1815C23.7105 72.0991 24.7755 72.1779 25.6039 72.2272C26.4322 72.2765 27.1323 71.3106 28.6214 71.4485C30.1104 71.5865 30.2484 72.2864 31.4515 72.0005C32.6545 71.7147 31.9643 69.5856 31.4515 68.7577C30.9387 67.9297 30.5245 65.6922 30.6626 63.6125C30.8007 61.5327 31.8657 58.0927 32.6545 56.1016C33.4434 54.1106 38.1274 48.0783 39.2418 44.1356C40.3561 40.1929 40.9773 36.7135 41.0759 33.2833C41.1745 29.8532 39.6559 26.4231 37.9894 21.8693C36.3229 17.3155 35.5438 14.526 33.5913 13.1362C31.6389 11.7464 24.9925 9.71593 21.3734 9.81449C17.7544 9.91306 16.1766 10.7213 13.948 11.3029L13.9678 11.3127Z" stroke="white" stroke-linecap="round" stroke-linejoin="round"/>
<path d="M18.6124 20.4006C18.6124 20.4006 19.776 26.8469 18.8491 29.2618C17.9222 31.6767 17.5967 34.7816 18.6124 39.6015C19.6281 44.4214 20.8805 46.1858 20.8805 46.1858C20.8805 46.1858 19.8155 37.3246 20.3283 35.1955C20.841 33.0665 23.257 29.8138 24.0459 27.0046C24.8348 24.1954 25.9392 19.6121 23.6712 16.6945" stroke="white" stroke-linecap="round" stroke-linejoin="round"/>
<path d="M20.9795 1.01245L21.0781 9.82436" stroke="white" stroke-miterlimit="10" stroke-linecap="round"/>
</svg>
