<svg width="61" height="62" viewBox="0 0 61 62" fill="none" xmlns="http://www.w3.org/2000/svg">
<path d="M42.0029 18.2987C42.1042 19.3356 41.3868 20.381 40.3488 20.483C39.3192 20.585 38.2811 19.8625 38.1799 18.8171C37.9773 16.8453 36.9393 15.1795 35.5974 13.9301C34.2555 12.7827 32.5001 12.0603 30.5422 12.0603C29.4029 12.0603 28.5843 11.1254 28.5843 10.0885C28.5843 8.94111 29.4113 8.11669 30.5422 8.11669C33.4285 8.11669 36.1122 9.26407 38.1799 11.0234C40.2475 12.8932 41.6907 15.392 42.0029 18.2987ZM14.0263 35.7644H49.0161C51.2863 35.7644 53.2442 34.8295 54.6958 33.3762C56.2402 31.9228 57.177 29.8405 57.177 27.5543C57.177 23.0837 53.4636 19.4461 49.0245 19.4461H48.2987C47.1594 19.5481 46.231 18.7151 46.231 17.5763C45.7162 13.7261 43.7499 10.301 40.9649 7.80222C38.1799 5.41396 34.4581 3.85012 30.5422 3.85012C27.2424 3.85012 24.1451 4.88701 21.5627 6.65483C18.9802 8.42266 16.921 11.0234 15.7817 14.0321C15.4694 14.763 14.6424 15.2815 13.8237 15.2815C11.14 15.2815 8.65883 16.4289 6.80216 18.2987C5.04676 20.1685 3.91588 22.6672 3.91588 25.472C3.91588 31.1919 8.45628 35.7644 14.0347 35.7644H14.0263ZM49.0161 39.7166H14.0347C6.29579 39.7166 0 33.3762 0 25.472C0 21.6218 1.54441 18.0947 4.12687 15.5959C6.29579 13.3097 9.29178 11.7458 12.5916 11.4399C14.136 8.21868 16.5159 5.41396 19.4022 3.43366C22.6007 1.24938 26.4238 0 30.5506 0C35.5046 0 40.045 1.76782 43.5558 4.88701C46.653 7.58975 48.8219 11.3294 49.7503 15.494C56.0461 15.9104 61 21.2139 61 27.5543C61 30.8774 59.6581 33.9966 57.4892 36.1809C55.3203 38.3652 52.3243 39.7166 49.0245 39.7166H49.0161ZM18.3641 44.1871C18.5667 43.1502 19.706 42.5213 20.7356 42.7337C21.7652 43.0482 22.3897 44.0851 22.0775 45.122L20.1195 52.7118C19.8073 53.7486 18.7777 54.2671 17.7481 54.0631C16.7185 53.7486 16.0939 52.7118 16.3049 51.6749L18.3726 44.1871H18.3641ZM42.7203 44.0851C43.0325 43.0482 44.0621 42.4193 45.0917 42.7337C46.1213 43.0482 46.7458 44.0851 46.4336 45.122L44.4757 52.7118C44.1634 53.7486 43.1338 54.2671 42.1042 54.0631C41.0746 53.7486 40.4501 52.7118 40.7623 51.6749L42.7203 44.0851ZM34.5678 44.0851C34.8801 43.0482 35.9097 42.4193 36.9393 42.7337C37.9689 43.0482 38.5934 44.0851 38.2811 45.122L34.2555 60.5055C33.9433 61.5424 32.9137 62.1713 31.8841 61.9588C30.8545 61.6444 30.2299 60.6075 30.4409 59.5706L34.5678 44.0851ZM26.4153 44.0851C26.7276 43.0482 27.7572 42.4193 28.7868 42.7337C29.8164 43.0482 30.4409 44.0851 30.2299 45.122L26.1031 60.5055C25.7908 61.5424 24.7612 62.1713 23.7316 61.9588C22.702 61.6444 22.0775 60.6075 22.3897 59.5706L26.4153 44.0851Z" fill="white"/>
</svg>
