<svg width="19" height="38" viewBox="0 0 19 38" fill="none" xmlns="http://www.w3.org/2000/svg">
<path d="M15.2 20.9V5.7C15.2 2.546 12.654 0 9.5 0C6.346 0 3.8 2.546 3.8 5.7V20.9C1.501 22.629 0 25.403 0 28.5C0 30.628 0.722 32.566 1.9 34.143V34.2H1.938C3.667 36.499 6.403 38 9.5 38C12.597 38 15.314 36.499 17.062 34.2H17.1V34.143C18.278 32.566 19 30.628 19 28.5C19 25.403 17.499 22.629 15.2 20.9ZM3.8 28.5C3.8 26.714 4.655 25.004 6.08 23.94L7.6 22.8V5.7C7.6 4.655 8.455 3.8 9.5 3.8C10.545 3.8 11.4 4.655 11.4 5.7V22.8L12.92 23.94C14.345 25.023 15.2 26.714 15.2 28.5H3.8Z" fill="white"/>
</svg>
