<svg width="62" height="45" viewBox="0 0 62 45" fill="none" xmlns="http://www.w3.org/2000/svg">
<path d="M11.106 8.33207C11.9381 9.16698 11.9381 10.3086 11.106 11.1435C10.3758 11.8762 9.13613 11.8762 8.40592 11.1435L6.43605 9.16698C5.70583 8.43431 5.70583 7.19046 6.43605 6.35555C7.16626 5.62287 8.40592 5.62287 9.13613 6.35555L11.106 8.33207ZM4.77184 19.9016C5.80772 19.9016 6.74171 20.7365 6.74171 21.8781C6.74171 22.9175 5.80772 23.7524 4.77184 23.7524H1.96987C0.933991 23.7524 0 22.9175 0 21.8781C0 20.7279 0.933991 19.9016 1.96987 19.9016H4.77184ZM23.7743 4.68573C23.7743 5.83586 22.9422 6.66225 21.8044 6.66225C20.7686 6.66225 19.8346 5.82734 19.8346 4.68573V1.97652C19.8346 0.826391 20.7686 0 21.8044 0C22.9507 0 23.7743 0.834911 23.7743 1.97652V4.68573ZM27.8244 14.5854C27.6207 14.3809 27.3065 14.2702 27.0942 14.0657C24.1904 12.0892 20.2421 11.8762 17.126 13.6482C13.4919 15.8378 11.6239 20.2168 12.7617 24.2806C12.9655 25.0133 13.1778 25.6352 13.5938 26.2571C13.908 25.7374 14.4259 25.2177 14.842 24.8003C16.7099 22.926 19.0959 21.6736 21.9063 21.3584C23.1545 18.6492 25.0225 16.4597 27.4084 14.7899C27.5103 14.7899 27.7225 14.6876 27.8244 14.5854ZM11.7258 30.5254C10.4777 28.9663 9.54369 27.1942 9.02575 25.3114C7.87949 21.0432 8.92386 16.4512 11.7258 13.12C14.1118 10.4108 17.6439 8.63877 21.278 8.53654C24.08 8.43431 26.882 9.15846 29.2764 10.8283C30.1085 11.348 30.9406 12.0807 31.5604 12.8048C33.2246 12.2851 34.8803 11.9699 36.7568 11.9699C40.9088 11.9699 44.6532 13.529 47.5571 16.0337C50.1553 18.2232 51.9214 21.2476 52.7535 24.681C57.9499 25.0984 62 29.5797 62 34.7851C62 40.408 57.4319 45 51.8195 45H23.2564C20.0383 45 17.0241 43.6454 14.9523 41.5581C12.7702 39.3686 11.4202 36.4549 11.4202 33.1153C11.4202 32.1782 11.522 31.3432 11.7343 30.5083L11.7258 30.5254ZM44.9589 27.3987C45.0608 28.4381 44.3391 29.486 43.2947 29.5882C42.2588 29.6905 41.2145 28.9663 41.1126 27.9184C41.0107 26.7683 40.3824 25.8311 39.6606 25.107C38.8285 24.485 37.7927 24.0676 36.7568 24.0676C35.6105 24.0676 34.7869 23.1304 34.7869 22.0911C34.7869 21.0517 35.619 20.1145 36.7568 20.1145C38.837 20.1145 40.705 20.9495 42.1569 22.2018C43.7108 23.5564 44.6532 25.3285 44.9589 27.4158V27.3987ZM23.2564 41.1492H51.811C55.3432 41.1492 58.1452 38.3378 58.1452 34.7936C58.1452 31.2495 55.3432 28.5403 51.811 28.5403H51.2931C50.1468 28.6426 49.2128 27.8076 49.2128 26.666C48.6949 23.6416 47.243 20.9324 45.0608 18.9559C42.7768 17.0816 39.8644 15.8292 36.7568 15.8292C34.0567 15.8292 31.6708 16.6641 29.5905 18.0187C27.5103 19.4756 25.9565 21.5629 25.0225 23.8546C24.7083 24.6895 23.8762 25.2092 23.0526 25.107C20.9723 25.2092 19.0025 26.0441 17.6524 27.5009C16.2005 28.9578 15.3684 30.9428 15.3684 33.1238C15.3684 35.3048 16.2005 37.2899 17.6524 38.7467C19.1044 40.2035 21.0827 41.1407 23.2564 41.1407V41.1492Z" fill="white"/>
</svg>
