<svg width="41" height="41" viewBox="0 0 41 41" fill="none" xmlns="http://www.w3.org/2000/svg">
<path d="M32.4583 6.83329H30.75V3.41663H27.3333V6.83329H13.6667V3.41663H10.25V6.83329H8.54167C6.64542 6.83329 5.14208 8.37079 5.14208 10.25L5.125 34.1666C5.125 36.0458 6.64542 37.5833 8.54167 37.5833H32.4583C34.3375 37.5833 35.875 36.0458 35.875 34.1666V10.25C35.875 8.37079 34.3375 6.83329 32.4583 6.83329ZM32.4583 34.1666H8.54167V17.0833H32.4583V34.1666ZM32.4583 13.6666H8.54167V10.25H32.4583V13.6666ZM15.375 23.9166H11.9583V20.5H15.375V23.9166ZM22.2083 23.9166H18.7917V20.5H22.2083V23.9166ZM29.0417 23.9166H25.625V20.5H29.0417V23.9166ZM15.375 30.75H11.9583V27.3333H15.375V30.75ZM22.2083 30.75H18.7917V27.3333H22.2083V30.75ZM29.0417 30.75H25.625V27.3333H29.0417V30.75Z" fill="white"/>
</svg>
