<svg width="58" height="34" viewBox="0 0 58 34" fill="none" xmlns="http://www.w3.org/2000/svg">
<path d="M52.0671 23.5985C51.7837 22.4242 51.5812 20.9664 51.6622 19.8326C52.5531 16.9373 52.5935 14.4267 51.9052 12.24C53.4034 11.1871 54.8815 9.72937 56.4405 9.40542C54.2538 8.67653 52.4316 8.85875 50.994 8.79801C51.8242 7.90715 52.6745 7.03653 53.5654 6.63159C51.6622 6.40888 49.9412 6.91505 48.5239 7.13776C47.4306 6.14567 46.1348 5.2548 44.6568 4.42468C43.6039 3.85776 40.1619 2.64295 37.7323 2.33925C30.0587 1.54962 22.8508 -0.3131 15.1975 0.112085C11.1076 0.355048 6.47108 1.18517 3.49478 3.71604C3.08985 3.6148 2.78614 3.43258 2.56343 3.18962C1.91553 2.52147 2.36096 1.40789 3.29232 1.36739C3.51503 1.36739 3.75799 1.40789 4.0617 1.54962C4.20343 1.61036 4.34515 1.73184 4.50713 1.73184C4.77034 1.73184 4.97281 1.56986 4.87157 1.26616C4.79059 1.04344 4.62861 0.921961 4.42614 0.820727C3.43404 0.213319 2.40145 0.314554 1.7333 0.780233C0.154044 1.87357 0.518488 4.18172 2.25972 4.99159C1.24738 6.26715 0.781698 7.40097 0.558982 8.67653C-0.0281786 12.1388 2.15849 13.8395 1.51059 16.2084C1.0854 17.7471 0.599476 17.9496 0.17429 18.9012C0.0325621 19.2252 -0.0281786 19.6099 0.0123152 20.0148C0.0730559 20.6425 0.336266 21.4523 0.4375 22.1205C0.761451 24.0237 0.984167 24.8336 1.00441 26.8178C1.00441 27.4252 0.761451 29.2069 0.943673 29.6321C1.10565 30.0573 1.44985 30.199 1.95602 30.28C2.05725 31.1709 2.80639 32.001 4.24392 32.2237C5.17528 32.3654 6.6938 32.2642 6.3496 31.0696C6.12688 30.2597 5.41824 29.0854 4.42614 27.8301C4.0617 25.3195 3.49478 23.4163 5.31701 21.4321C5.80293 22.8089 6.26861 24.1249 6.49133 25.603C6.6533 26.3926 6.63306 27.2834 6.67355 27.8909C6.71404 28.5792 6.97725 29.0652 7.76688 28.9842C7.9896 29.7941 9.12343 30.4217 10.6217 30.4217C13.0108 30.4217 11.3911 28.0326 10.0953 26.7368C9.46762 24.7121 8.9817 22.8089 9.14367 21.4321C9.26515 20.4602 9.81182 19.9338 10.5002 19.2859C15.7037 20.5007 22.3244 20.44 27.4266 19.8326C28.1758 19.8731 28.9654 19.9136 29.7753 19.9136C30.2207 22.6874 30.9901 26.0686 31.2128 28.3565C31.2736 29.0652 31.0103 30.361 31.5165 30.7254C31.719 30.8671 31.9822 30.8874 32.2656 30.7659C32.3061 32.1225 33.6829 32.4667 35.1407 32.1427C36.234 31.8997 37.2464 31.5758 34.2701 28.2553C33.9664 25.9876 34.0879 23.7807 34.4928 21.6346C34.9382 23.1733 35.2622 24.6716 35.4849 25.8459C35.6064 26.5546 35.4444 27.8504 35.9911 28.2148C36.2138 28.3565 36.477 28.3768 36.7402 28.2553C36.9022 29.6118 38.2992 29.9358 39.7368 29.6321C40.7896 29.3891 41.7817 29.0652 38.5219 25.7447C38.036 23.558 37.9753 21.4118 38.1575 19.3264C38.6029 19.5086 39.0281 19.7111 39.4938 19.8528C42.8953 21.5738 45.0819 24.7121 48.038 25.4207C48.4024 25.7244 48.8681 25.8662 49.4148 25.8662C50.2044 25.8662 51.1155 25.5017 51.8039 25.0968C52.7758 24.5299 52.7353 24.0439 52.0671 23.5783V23.5985Z" fill="white"/>
<path d="M45.9518 31.677C45.2026 31.1911 45.0812 30.118 45.6886 29.4701C47.0046 28.0528 49.3532 25.9269 51.3982 25.9269C53.6253 25.9269 56.1157 28.7007 57.29 30.1788C57.695 30.6849 57.5533 31.4341 56.9863 31.758C55.0629 32.8716 50.6288 34.7141 45.972 31.677H45.9518Z" fill="white"/>
</svg>
