<svg width="42" height="24" viewBox="0 0 42 24" fill="none" xmlns="http://www.w3.org/2000/svg">
<path fill-rule="evenodd" clip-rule="evenodd" d="M32.3694 13.6463C30.9168 14.1114 29.4196 14.4456 27.9373 14.6782C27.8039 16.1896 27.8484 17.73 28.2041 19.3141C30.5907 21.683 29.8643 21.93 29.0935 22.1044C28.0559 22.337 27.0183 22.0899 26.8997 21.1162C26.707 21.1889 26.4995 21.1889 26.3513 21.0871C25.951 20.8255 26.0696 19.8954 25.9807 19.3868C25.8176 18.5294 25.5953 17.4685 25.2544 16.364C24.9579 17.919 24.869 19.4885 25.0913 21.1162C27.2703 23.485 26.5143 23.7321 25.7287 23.9065C24.6614 24.139 23.6535 23.892 23.6238 22.9183C23.4163 22.9909 23.2236 22.9909 23.0754 22.8892C22.7048 22.6276 22.8975 21.6975 22.853 21.1889C22.69 19.5466 22.1415 17.1342 21.8006 15.1287C21.2077 15.1287 20.6296 15.0996 20.0811 15.0705C16.3457 15.5211 11.4986 15.5647 7.68904 14.6782C7.17023 15.1432 6.78483 15.5356 6.69589 16.2186C6.57731 17.1923 6.93306 18.5584 7.39258 20.0262C8.34126 20.9563 9.52709 22.6567 7.77797 22.6712C6.68106 22.6712 5.85098 22.2207 5.68793 21.6394C5.095 21.683 4.91713 21.3487 4.88748 20.8546C4.85783 20.4186 4.88747 19.7646 4.75407 19.2124C4.59101 18.1515 4.25009 17.2069 3.89434 16.2186C2.57509 17.6429 2.9753 19.0089 3.24212 20.811C3.96845 21.7266 4.48725 22.5549 4.65031 23.1363C4.9023 23.9937 3.79057 24.0664 3.10871 23.9646C2.05627 23.8048 1.493 23.2089 1.4337 22.5695C1.07795 22.5259 0.811136 22.4096 0.692552 22.1044C0.573967 21.7992 0.751842 20.5203 0.737019 20.0844C0.737019 18.6601 0.559144 18.0643 0.321975 16.7127C0.233037 16.2332 0.0403385 15.6519 0.0106924 15.2013C-0.0189537 14.9107 0.0106951 14.6346 0.12928 14.402C0.440564 13.719 0.796311 13.5737 1.1076 12.4692C1.58193 10.7834 -0.0337818 9.54807 0.41091 7.06295C0.573964 6.16192 0.9149 5.34808 1.65605 4.41798C0.38127 3.83667 0.114448 2.17992 1.25582 1.40968C1.74498 1.07543 2.48614 1.0173 3.22729 1.43875C3.37552 1.52595 3.49411 1.59861 3.5534 1.75847C3.64234 1.97646 3.47929 2.10726 3.28659 2.09273C3.168 2.09273 3.06424 2.00553 2.96048 1.96193C2.73813 1.8602 2.56026 1.8166 2.39721 1.83114C1.71534 1.8602 1.40406 2.64497 1.86357 3.13909C2.02663 3.31348 2.24897 3.44428 2.54543 3.51694C4.72442 1.70034 8.1189 1.1045 11.1132 0.944634C17.0127 0.61038 22.5417 2.12179 28.5006 2.63044C29.7309 2.45605 30.8871 2.39792 31.9544 2.48511C32.6807 1.72941 33.4663 0.697576 34.667 0C34.3409 0.610379 34.2223 1.48235 34.1334 2.35432C34.9931 1.75847 35.9862 0.857437 37.5723 0.319723C36.8163 1.19169 36.594 2.67404 36.1938 3.92386C37.5575 4.88303 38.6544 6.32178 39.4252 8.35637C39.8699 9.03942 40.6407 9.78059 41.3374 10.3328C41.9303 10.2892 42.1823 10.5654 41.8562 11.3065C41.6338 11.8297 41.2633 12.4256 40.8037 12.7889C40.4925 13.0359 40.1664 13.1522 39.8106 13.1377C37.7798 14.0387 35.0969 13.1958 32.3694 13.6899V13.6463Z" fill="white"/>
</svg>
