<svg width="50" height="50" viewBox="0 0 50 50" fill="none" xmlns="http://www.w3.org/2000/svg">
<path d="M41.6665 8.33325H8.33317C6.0415 8.33325 4.1665 10.2083 4.1665 12.4999V37.4999C4.1665 39.7916 6.0415 41.6666 8.33317 41.6666H41.6665C43.9582 41.6666 45.8332 39.7916 45.8332 37.4999V12.4999C45.8332 10.2083 43.9582 8.33325 41.6665 8.33325ZM41.6665 37.4999H8.33317V12.4999H41.6665V37.4999Z" fill="#919191"/>
<path d="M23.9582 15.6249H15.6248V23.9583H23.9582V15.6249Z" fill="#919191"/>
<path d="M34.3748 15.6249H26.0415V23.9583H34.3748V15.6249Z" fill="#919191"/>
<path d="M23.9582 26.0416H15.6248V34.3749H23.9582V26.0416Z" fill="#919191"/>
<path d="M34.3748 26.0416H26.0415V34.3749H34.3748V26.0416Z" fill="#919191"/>
</svg>
