<svg width="62" height="62" viewBox="0 0 62 62" fill="none" xmlns="http://www.w3.org/2000/svg">
<path d="M15.7888 12.9989C16.5192 13.7305 16.5192 14.9726 15.7888 15.7042C14.9564 16.5379 13.8183 16.5379 12.986 15.7042L9.0367 11.7484C8.30629 11.0167 8.30629 9.7747 9.0367 9.04308C9.86903 8.31147 11.1175 8.31147 11.8395 9.04308L15.7888 12.9989ZM34.7964 16.8526C27.0082 14.7684 18.9058 19.3537 16.8249 27.1548C14.7441 35.0664 19.4238 43.0716 27.212 45.1559C35.0003 47.2401 43.0008 42.5527 45.0816 34.7516C47.1625 26.9506 42.5847 18.9369 34.7964 16.8526ZM35.7307 12.9989C45.5997 15.7042 51.5195 25.9042 48.9206 35.7895C46.2197 45.6748 36.0364 51.6043 26.1674 48.899C16.2984 46.2958 10.3786 36.1043 13.0794 26.219C15.6784 16.3337 25.8531 10.4042 35.7222 13.0074L35.7307 12.9989ZM41.3361 31C41.3361 32.0379 40.5038 32.9737 39.3658 32.9737C38.3296 32.9737 37.4973 32.0379 37.4973 31C37.4973 27.461 34.5926 24.5516 30.949 24.5516C29.9129 24.5516 28.9786 23.6158 28.9786 22.5779C28.9786 21.4295 29.9129 20.6043 30.949 20.6043C36.6649 20.6043 41.3361 25.2832 41.3361 31.0085V31ZM32.9194 7.48628C32.9194 8.52415 32.0871 9.45994 30.949 9.45994C29.9129 9.45994 28.9786 8.52415 28.9786 7.48628V1.87157C28.9786 0.833697 29.9129 0 30.949 0C32.0956 0 32.9194 0.833697 32.9194 1.87157V7.48628ZM48.9206 15.7042C48.1901 16.5379 46.9501 16.5379 46.2197 15.7042C45.3874 14.9726 45.3874 13.7305 46.2197 12.9989L50.169 9.04308C50.8994 8.31147 52.1395 8.31147 52.8699 9.04308C53.6003 9.7747 53.6003 11.0167 52.8699 11.7484L48.9206 15.7042ZM54.4241 32.9737C53.3879 32.9737 52.4537 32.0379 52.4537 31C52.4537 29.8515 53.3879 29.0263 54.4241 29.0263H60.0296C61.0657 29.0263 62 29.86 62 31C62 32.0379 61.0657 32.9737 60.0296 32.9737H54.4241ZM46.2197 49.0011C45.3874 48.2695 45.3874 47.0274 46.2197 46.1937C46.9501 45.4621 48.1901 45.4621 48.9206 46.1937L52.8699 50.1496C53.6003 50.8812 53.6003 52.1232 52.8699 52.9569C52.1395 53.6885 50.8994 53.6885 50.169 52.9569L46.2197 49.0011ZM28.9786 54.5137C28.9786 53.3653 29.9129 52.5401 30.949 52.5401C32.0956 52.5401 32.9194 53.3738 32.9194 54.5137V60.0264C32.9194 61.1748 32.0871 62 30.949 62C29.9129 62 28.9786 61.1663 28.9786 60.0264V54.5137ZM12.9775 46.1937C13.8099 45.4621 15.0583 45.4621 15.7803 46.1937C16.5107 47.0274 16.5107 48.278 15.7803 49.0011L11.831 52.9569C10.9986 53.6885 9.86055 53.6885 9.02822 52.9569C8.29781 52.1232 8.29781 50.8727 9.02822 50.1496L12.9775 46.1937ZM7.47396 29.0263C8.62054 29.0263 9.44438 29.86 9.44438 31C9.44438 32.0379 8.61204 32.9737 7.47396 32.9737H1.97039C0.823816 32.9737 0 32.0379 0 31C0 29.8515 0.832309 29.0263 1.97039 29.0263H7.47396Z" fill="white"/>
</svg>
